<svg width="173" height="298" viewBox="0 0 173 298" fill="none" xmlns="http://www.w3.org/2000/svg">
<path d="M78.8311 183.895C78.8311 179.899 88.3718 121.628 93.1422 92.9925L101.831 86L84.4533 183.895C85.1348 187.558 86.4977 195.682 86.4977 198.879C86.4977 202.075 83.4311 202.209 81.8977 201.876C80.8755 197.547 78.8311 187.891 78.8311 183.895Z" fill="#CC7C05"/>
<path d="M85.8245 202.92C85.6486 205.878 76.8716 248.633 72.5052 269.64L66.5406 274.479L82.1643 202.703C81.8819 199.966 81.3523 193.9 81.4931 191.534C81.6338 189.169 83.6361 189.189 84.6197 189.495C85.0946 192.738 86.0004 199.963 85.8245 202.92Z" fill="#CC7C05"/>
<path d="M170.278 151.932C170.228 149.934 161.401 121.014 156.994 106.804L149.541 103.496L165.513 152.053C164.982 153.898 163.931 157.989 163.971 159.586C164.012 161.184 166.613 161.185 167.908 160.985C168.719 158.799 170.329 153.929 170.278 151.932Z" fill="#CC7C05"/>
<path d="M170.874 155L162.541 157.769V164L172.541 160.538L170.874 155Z" fill="#F2E2D2"/>
<path d="M133.563 112.489C135.71 83.4339 145.635 80.7876 150.328 83.0963L155.281 88.7284C158.583 92.4831 130.879 148.808 133.563 112.489Z" fill="#CC7C05"/>
<path d="M6.33184 64L85.3318 55L144.832 65.5L151.832 72C150.665 84 142.932 111.6 121.332 126C99.7318 140.4 78.3318 130.667 70.3318 124C65.3318 120.167 54.4318 112.6 50.8318 113C47.2318 113.4 44.6652 115.167 43.8318 116C39.9985 111.167 31.0318 101.7 25.8318 102.5C21.6371 103.145 21.4986 104.485 22.2142 105.416C22.4228 105.615 22.6287 105.81 22.8318 106C22.6063 105.839 22.3857 105.639 22.2142 105.416C11.8115 95.4756 -5.04017 74.1956 6.33184 64Z" fill="#FF9500"/>
<path d="M75.0405 128C54.2405 107.6 45.0405 112.166 43.0405 117V124.5C43.0405 129.5 101.041 153.5 75.0405 128Z" fill="#FF9900"/>
<path d="M37.5405 190.5C37.5405 188.5 46.8739 159.333 51.5405 145L60.0405 141.5L43.0405 190.5C43.7072 192.333 45.0405 196.4 45.0405 198C45.0405 199.6 42.0405 199.667 40.5405 199.5C39.5405 197.333 37.5405 192.5 37.5405 190.5Z" fill="#FF9900"/>
<path d="M12.2905 205.895C12.2905 201.899 21.8313 143.628 26.6016 114.992L35.2905 108L17.9127 205.895C18.5942 209.558 19.9572 217.682 19.9572 220.879C19.9572 224.075 16.8905 224.209 15.3572 223.876C14.335 219.547 12.2905 209.891 12.2905 205.895Z" fill="#FF9900"/>
<path d="M19.284 224.92C19.108 227.878 10.3311 270.633 5.96465 291.64L0.000109792 296.479L15.6238 224.703C15.3414 221.966 14.8118 215.9 14.9525 213.534C15.0933 211.169 17.0956 211.189 18.0792 211.495C18.5541 214.738 19.4599 221.963 19.284 224.92Z" fill="#FF9900"/>
<path d="M49.5405 202C45.1405 202 44.7072 199.333 45.0405 198H39.0405C41.0405 201.333 45.9405 208 49.5405 208C54.0405 208 81.0405 192.5 81.0405 192C81.0405 191.5 99.5405 164 99.5405 162C99.5405 160 115.541 150 114.541 146.5C113.541 143 106.541 149.5 99.5405 154C92.5405 158.5 84.5405 177.5 81.0405 181C77.5405 184.5 55.0406 202 49.5405 202Z" fill="#FF9900"/>
<path d="M160.062 158.048C163.615 158.048 163.31 156.704 163.041 158.048L166.541 156.5C164.926 153.14 162.969 152 160.062 152C156.429 152 134.627 167.625 134.627 168.129C134.627 168.633 119.689 196.355 119.689 198.371C119.689 200.387 106.769 210.468 107.577 213.996C108.384 217.524 114.037 210.972 119.689 206.435C125.341 201.899 131.801 182.746 134.627 179.218C137.453 175.69 155.621 158.048 160.062 158.048Z" fill="#FF9900"/>
<path d="M47.5405 146.5C41.5405 144.5 46.3739 132 49.5405 126C57.8739 128.667 74.8405 134.4 76.0405 136C77.5405 138 76.0405 148 73.0405 151C70.0405 154 55.0406 149 47.5406 146.5L47.5405 146.5Z" fill="#FFF0DF"/>
<path d="M45.5311 108.907C50.9185 112.22 43.3674 123.292 38.9184 128.414C31.4106 123.921 16.1938 114.477 15.3894 112.646C14.3839 110.357 18.1202 100.961 21.7242 98.7223C25.3282 96.4837 38.7967 104.766 45.531 108.907L45.5311 108.907Z" fill="#FFF0DF"/>
<path d="M149.776 122.325C146.944 127.496 143.077 121.131 141.497 117.302C145.383 110.104 153.428 95.4938 154.517 94.6467C155.879 93.5878 159.746 96.5172 160.073 99.7261C160.399 102.935 153.317 115.862 149.776 122.325L149.776 122.325Z" fill="#F2E2D2"/>
<path d="M162.541 164L169.002 155.807L165.87 150L157.28 158.796L162.541 164Z" fill="#FFF0DF"/>
<path d="M40.7851 205.029L48.0014 197.807L44.8702 192L36.2802 200.796L40.7851 205.029Z" fill="#FFF0DF"/>
<path d="M55.0405 87C48.5 87 11.5405 67 11.5405 67L27.5 72.5L25.0405 68L53.5 82.5L132.5 68L142 66.5L140.541 68C140.541 68 58.063 87 55.0405 87Z" fill="#CC7C05"/>
<path d="M45.1016 5C41.7613 5.11537 38.5521 6.11392 35.5003 7.45261C33.6983 8.24309 28.6836 10.1972 27.7678 12.261C26.3329 15.4948 32.0933 15.9739 33.8572 16.3272C39.416 17.4408 51.5925 16.5755 52.6086 24.7177C53.1672 29.1934 42.4996 33.1512 39.431 34.4959C38.8555 34.7481 36.5552 34.9692 37.0468 36.0772C37.6995 37.548 41.4977 38.8883 42.7818 39.8529C48.568 44.1996 50.901 47.4646 50.901 54.6332C50.901 60.3325 50.9414 66.0229 51.8031 71.6724C52.4552 75.9477 54.2828 79.9056 55.5405 84" stroke="black" stroke-width="2" stroke-linecap="round"/>
<path d="M98.5405 121C98.5405 114 106.541 111.5 109.541 112.5C115.041 114.5 114.541 118 114.541 121C113.541 124.5 112.876 127.784 107.041 129.5C98.5405 132 98.5405 122.274 98.5405 121ZM82.5405 75.2744C93.0339 75.2744 101.541 84.5213 101.541 97.5C101.541 98.4962 101.49 99.4854 101.393 100.463L103.541 101C103.254 105.009 99.5337 110.454 96.1587 114.508C95.2642 115.729 94.2774 116.838 93.2134 117.812C92.9776 118.058 92.7523 118.288 92.5405 118.5L92.5952 118.355C89.679 120.814 86.2327 122.274 82.5405 122.274C72.0471 122.274 58.5405 116.753 58.5405 103.774C58.5405 90.7957 72.0471 75.2744 82.5405 75.2744ZM136.541 67.5C148.236 71.7102 148.989 76.3585 150.675 86.7676C150.74 87.1697 150.807 87.5804 150.875 88H153.041C153.363 91.5514 151.935 99.9495 143.849 105.926C141.454 107.946 138.817 109.121 136.541 109.5C124.211 111.555 117.541 102.5 117.541 91C117.541 78.0213 124.041 69.5 136.541 67.5Z" fill="white"/>
<ellipse cx="81.3264" cy="100.891" rx="4.5" ry="6" transform="rotate(13.6131 81.3264 100.891)" fill="black"/>
<ellipse cx="132.041" cy="90" rx="4.5" ry="6" fill="black"/>
<ellipse cx="107.253" cy="121.357" rx="3.5" ry="4.5" transform="rotate(17.8706 107.253 121.357)" fill="black"/>
<path d="M50.5405 4.28571C50.5405 6.65265 50.0258 10 47.5405 10C45.0552 10 41.5405 6.65265 41.5405 4.28571C41.5405 1.91878 43.5552 0 46.0405 0C48.5258 0 50.5405 1.91878 50.5405 4.28571Z" fill="#FF9900"/>
</svg>
